# xmcd
#
# Track frame offsets:
# 150
# 13814
# 25547
# 39837
# 51971
# 66757
# 79594
# 93769
# 108524
# 122489
# 135877
# 149507
# 164947
# 176417
# 190910
# 204482
# 218607
# 231632
# 246057
# 260359
# 273174
# 287399
# 299406
# 313206
# 334796
#
# Disc length: 4648 seconds
#
# Revision: 0
# Processed by: cddbd v1.5.2PL0 Copyright (c) Steve Scherf et al.
# Submitted via: Audion 3.0.2 (http://www.panic.com/audion/)
#
DISCID=68122619
DTITLE=Various Artist - The Big Blast, 100 Classic Big Bands, Swing That Music (disk 1)
DYEAR=1900
DGENRE=
TTITLE0=Clementine (From New Orleans) - Jean Goldkette and His Orchestra
TTITLE1=Put It There - McKinney's Cotton Pickers
TTITLE2=Red Hot Pepper - Jelly Roll Morton and His Orchestra
TTITLE3=Futuristic Rhythm - Benn Pollack and His Park Avenue Orchestra
TTITLE4=Feelin' The Spirit - Luis Russell and His Orchestra
TTITLE5=China Boy - Red Nichols and His Five Pennies
TTITLE6=White Jazz - Glen Gray and The casa Loma Orchestra
TTITLE7=Chant Of The Weed - Don Redman and His Orchestra
TTITLE8=Mush Mouth - Claude Hopkins and His Orchestra
TTITLE9=Blues Prelude - Isham Jones and His Orchestra
TTITLE10=Jazz Cocktail - Mills Blues Rhythm Band
TTITLE11=Toby - Bennie Moten's Kansas City Orchestra
TTITLE12=What A Perfect Combination - Ray Noble, The New Mayfair Orchestra
TTITLE13=Stompin' At The Savoy - Chick Webb's Savoy Orchestra
TTITLE14=Down South Camp Meeting - Fletcher Henderson and His Orchestra
TTITLE15=Everybody Shuffle - Benny Carter and His Orchestra
TTITLE16=Tailspin - The Dorsey Brothers Orchestra
TTITLE17=The Voice Of Old Man River - Willie Bryant and His Orchestra
TTITLE18=Farewell Blues - Paul Whiteman and His Orchestra
TTITLE19=Swing That Music - Louis Armstrong and His Orchestra
TTITLE20=Should I - Joe Haymes and His Orchestra
TTITLE21=Organ Grinder's Swing - Jimmie Lunceford and His Orchestra
TTITLE22=King Porter Stomp - Teddy Hill and His NBC Orchestra
TTITLE23=I Can't Get Started - Bunny Berigan and His Orchestra
TTITLE24=Russian Lullaby - Red Norvo and His Orchestra
EXTD=
EXTT0=
EXTT1=
EXTT2=
EXTT3=
EXTT4=
EXTT5=
EXTT6=
EXTT7=
EXTT8=
EXTT9=
EXTT10=
EXTT11=
EXTT12=
EXTT13=
EXTT14=
EXTT15=
EXTT16=
EXTT17=
EXTT18=
EXTT19=
EXTT20=
EXTT21=
EXTT22=
EXTT23=
EXTT24=
PLAYORDER=
